<svg xmlns="http://www.w3.org/2000/svg" width="1000" height="620" viewBox="0 0 1000 620"><defs><linearGradient id="bg" x1="0" y1="0" x2="1" y2="1"><stop offset="0" stop-color="#111827"/><stop offset="1" stop-color="#020617"/></linearGradient><filter id="glow"><feGaussianBlur stdDeviation="7" result="blur"/><feMerge><feMergeNode in="blur"/><feMergeNode in="SourceGraphic"/></feMerge></filter><style>text{font-family:Segoe UI,Arial,sans-serif}.muted{fill:#94a3b8}.label{fill:#e2e8f0}</style></defs><rect width="1000" height="620" rx="28" fill="url(#bg)"/><circle cx="900" cy="60" r="180" fill="#2563eb" opacity=".10"/><circle cx="90" cy="590" r="150" fill="#7c3aed" opacity=".10"/><text x="56" y="72" fill="#f8fafc" font-size="32" font-weight="700">AgentJS Runtime</text><text x="56" y="102" class="muted" font-size="15">Native JavaScript execution 路 live workload snapshot</text><rect x="784" y="48" width="160" height="46" rx="23" fill="#052e2b" stroke="#10b981" stroke-opacity=".5"/><circle cx="812" cy="71" r="6" fill="#34d399" filter="url(#glow)"/><text x="830" y="77" fill="#a7f3d0" font-size="16" font-weight="600">ALL SYSTEMS GO</text><rect x="56" y="136" width="888" height="112" rx="18" fill="#0f172a" stroke="#1e293b"/><text x="84" y="172" class="muted" font-size="13">ACTIVE AGENTS</text><text x="84" y="220" fill="#f8fafc" font-size="38" font-weight="700">3</text><line x1="284" y1="160" x2="284" y2="224" stroke="#334155"/><text x="324" y="172" class="muted" font-size="13">AVERAGE LOAD</text><text x="324" y="220" fill="#f8fafc" font-size="38" font-weight="700">81%</text><line x1="584" y1="160" x2="584" y2="224" stroke="#334155"/><text x="624" y="172" class="muted" font-size="13">ENGINE</text><text x="624" y="218" fill="#60a5fa" font-size="27" font-weight="700">NATIVE VM</text><g><circle cx="76" cy="315" r="20" fill="#8b5cf6" opacity=".18"/><circle cx="76" cy="315" r="7" fill="#8b5cf6"/><text x="112" y="308" class="label" font-size="18" font-weight="650">Planner</text><text x="112" y="331" class="muted" font-size="13">Task routing</text><rect x="300" y="300" width="510" height="30" rx="15" fill="#1e293b"/><rect x="300" y="300" width="418" height="30" rx="15" fill="#8b5cf6" opacity=".88"/><text x="832" y="321" fill="#f8fafc" font-size="18" font-weight="700">82%</text><text x="900" y="321" class="muted" font-size="13">18 ms</text></g><g><circle cx="76" cy="409" r="20" fill="#22d3ee" opacity=".18"/><circle cx="76" cy="409" r="7" fill="#22d3ee"/><text x="112" y="402" class="label" font-size="18" font-weight="650">Coder</text><text x="112" y="425" class="muted" font-size="13">Native pipeline</text><rect x="300" y="394" width="510" height="30" rx="15" fill="#1e293b"/><rect x="300" y="394" width="342" height="30" rx="15" fill="#22d3ee" opacity=".88"/><text x="832" y="415" fill="#f8fafc" font-size="18" font-weight="700">67%</text><text x="900" y="415" class="muted" font-size="13">31 ms</text></g><g><circle cx="76" cy="503" r="20" fill="#34d399" opacity=".18"/><circle cx="76" cy="503" r="7" fill="#34d399"/><text x="112" y="496" class="label" font-size="18" font-weight="650">Reviewer</text><text x="112" y="519" class="muted" font-size="13">Quality gate</text><rect x="300" y="488" width="510" height="30" rx="15" fill="#1e293b"/><rect x="300" y="488" width="479" height="30" rx="15" fill="#34d399" opacity=".88"/><text x="832" y="509" fill="#f8fafc" font-size="18" font-weight="700">94%</text><text x="900" y="509" class="muted" font-size="13">12 ms</text></g><line x1="56" y1="574" x2="944" y2="574" stroke="#1e293b"/><text x="56" y="602" class="muted" font-size="13">JS 鈫?Lexer 鈫?Parser 鈫?Bytecode 鈫?VM 鈫?SVG</text><text x="944" y="602" text-anchor="end" fill="#64748b" font-size="13">Generated by AgentJS</text></svg>
